<?xml version="1.0" encoding="UTF-8" standalone="no"?>
<!-- Generator: Adobe Illustrator 26.4.1, SVG Export Plug-In . SVG Version: 6.00 Build 0)  -->

<svg
   version="1.1"
   id="uuid-1cdc405f-be32-44a4-af4e-e7b6dcc08d12"
   x="0px"
   y="0px"
   viewBox="0 0 771.7365 512"
   xml:space="preserve"
   width="771.73651"
   height="512"
   xmlns="http://www.w3.org/2000/svg"
   xmlns:svg="http://www.w3.org/2000/svg"><defs
   id="defs2" />&#10;<path
   d="M 288.3897,410.92005 Z"
   id="path1"
   style="stroke-width:2.0153" />&#10;<path
   d="m 198.70876,0 v 122.53035 c -7.85967,-0.80612 -16.12241,-1.41071 -24.58668,-1.41071 C 66.101901,121.32117 0,196.89499 0,315.99933 0,435.10367 66.101901,510.87902 174.12208,510.87902 h 88.27022 v -34.66319 h -88.27022 c -84.441147,0 -129.180848,-60.66058 -129.180848,-146.51244 v -27.20658 c 0,-85.85186 44.538171,-146.51245 129.180848,-146.51245 76.98453,0 124.34413,49.3749 124.34413,129.98698 v 27.60963 c 0,47.96419 -12.29334,63.88507 -31.43871,63.88507 -12.6964,0 -19.74996,-8.86733 -19.74996,-24.78821 v -128.1732 h -48.77031 v 31.84177 h -5.64284 c -3.82907,-21.16067 -16.52548,-35.67084 -39.49992,-35.67084 -40.91063,0 -64.288127,31.03564 -64.288127,97.74214 0,66.70649 23.377497,97.74214 64.288127,97.74214 26.80352,0 41.71675,-16.92854 45.94889,-40.30604 h 5.64284 c 1.81377,23.98209 20.75761,40.30604 54.01009,40.30604 5.44132,0 10.47957,-0.40306 15.51782,-1.41071 v 0 H 769.84532 V 0 Z m -0.20153,348.04263 c 0,15.92089 -12.6964,27.60964 -27.60963,27.60964 -19.3469,0 -31.03565,-13.09946 -31.03565,-36.6785 v -41.31368 c 0,-23.37751 11.68875,-36.6785 31.03565,-36.6785 15.11476,0 27.60963,11.68875 27.60963,27.60964 z M 652.55475,48.770305 507.85607,193.67051 H 466.74391 L 318.4177,48.770305 Z M 721.27654,365.97882 H 330.91257 c 7.05355,-17.73466 10.88263,-40.30604 10.88263,-67.71414 0,-83.83656 -36.27544,-139.45889 -94.31613,-163.44098 V 48.770305 h 1.00765 L 446.59089,242.44082 h 81.4182 L 721.47807,48.770305 Z"
   id="path2"
   style="stroke-width:2.0153" />&#10;</svg>
